<mxfile host="app.diagrams.net" modified="2023-07-10T14:27:44.748Z" agent="Mozilla/5.0 (Macintosh; Intel Mac OS X 10_15_7) AppleWebKit/537.36 (KHTML, like Gecko) Chrome/114.0.0.0 Safari/537.36" version="21.6.1" etag="v76CbGpkbx5B-J2xzeop" type="github">
  <diagram name="Page-1" id="GV9Zl0YOqGkLZ_pr4ByO">
    <mxGraphModel>
      <root>
        <mxCell id="0" />
        <mxCell id="1" parent="0" />
      </root>
    </mxGraphModel>
  </diagram>
</mxfile>
